<mxfile host="app.diagrams.net" agent="Mozilla/5.0 (Windows NT 10.0; Win64; x64) AppleWebKit/537.36 (KHTML, like Gecko) Chrome/135.0.0.0 Safari/537.36 OPR/120.0.0.0" version="28.0.9">
  <diagram name="Page-1" id="yiOKuUuSApPGLSMHls8P">
    <mxGraphModel dx="1420" dy="383" grid="1" gridSize="10" guides="1" tooltips="1" connect="1" arrows="1" fold="1" page="1" pageScale="1" pageWidth="850" pageHeight="1100" math="0" shadow="0">
      <root>
        <mxCell id="0" />
        <mxCell id="1" parent="0" />
        <mxCell id="RAs32KpJlCHKYsDaDuBX-1" value="" style="ellipse;html=1;shape=startState;fillColor=light-dark(#000000,#000000);strokeColor=light-dark(#FF0000,#FFFFFF);" vertex="1" parent="1">
          <mxGeometry x="160" y="50" width="30" height="30" as="geometry" />
        </mxCell>
        <mxCell id="RAs32KpJlCHKYsDaDuBX-2" value="" style="edgeStyle=orthogonalEdgeStyle;html=1;verticalAlign=bottom;endArrow=block;endSize=8;strokeColor=light-dark(#FF0000,#000000);rounded=0;endFill=1;entryX=0.5;entryY=0;entryDx=0;entryDy=0;" edge="1" source="RAs32KpJlCHKYsDaDuBX-1" parent="1" target="RAs32KpJlCHKYsDaDuBX-3">
          <mxGeometry relative="1" as="geometry">
            <mxPoint x="175" y="150" as="targetPoint" />
          </mxGeometry>
        </mxCell>
        <mxCell id="RAs32KpJlCHKYsDaDuBX-3" value="Capture first name from keyboard" style="rounded=0;whiteSpace=wrap;html=1;" vertex="1" parent="1">
          <mxGeometry x="115" y="120" width="120" height="60" as="geometry" />
        </mxCell>
        <mxCell id="RAs32KpJlCHKYsDaDuBX-4" value="" style="edgeStyle=orthogonalEdgeStyle;html=1;verticalAlign=bottom;endArrow=block;endSize=8;strokeColor=light-dark(#FF0000,#000000);rounded=0;endFill=1;entryX=0.5;entryY=0;entryDx=0;entryDy=0;exitX=0.5;exitY=1;exitDx=0;exitDy=0;" edge="1" parent="1" target="RAs32KpJlCHKYsDaDuBX-5" source="RAs32KpJlCHKYsDaDuBX-3">
          <mxGeometry relative="1" as="geometry">
            <mxPoint x="175" y="260" as="targetPoint" />
            <mxPoint x="175" y="190" as="sourcePoint" />
          </mxGeometry>
        </mxCell>
        <mxCell id="RAs32KpJlCHKYsDaDuBX-5" value="Capture last name from keyboard" style="rounded=0;whiteSpace=wrap;html=1;" vertex="1" parent="1">
          <mxGeometry x="115" y="230" width="120" height="60" as="geometry" />
        </mxCell>
        <mxCell id="RAs32KpJlCHKYsDaDuBX-6" value="" style="edgeStyle=orthogonalEdgeStyle;html=1;verticalAlign=bottom;endArrow=block;endSize=8;strokeColor=light-dark(#FF0000,#000000);rounded=0;endFill=1;entryX=0.5;entryY=0;entryDx=0;entryDy=0;exitX=0.5;exitY=1;exitDx=0;exitDy=0;" edge="1" parent="1" target="RAs32KpJlCHKYsDaDuBX-7" source="RAs32KpJlCHKYsDaDuBX-5">
          <mxGeometry relative="1" as="geometry">
            <mxPoint x="175" y="380" as="targetPoint" />
            <mxPoint x="175" y="310" as="sourcePoint" />
          </mxGeometry>
        </mxCell>
        <mxCell id="RAs32KpJlCHKYsDaDuBX-7" value="Capture user title using a drobox" style="rounded=0;whiteSpace=wrap;html=1;" vertex="1" parent="1">
          <mxGeometry x="115" y="350" width="120" height="60" as="geometry" />
        </mxCell>
        <mxCell id="RAs32KpJlCHKYsDaDuBX-8" value="" style="edgeStyle=orthogonalEdgeStyle;html=1;verticalAlign=bottom;endArrow=block;endSize=8;strokeColor=light-dark(#FF0000,#000000);rounded=0;endFill=1;entryX=0.5;entryY=0;entryDx=0;entryDy=0;exitX=0.5;exitY=1;exitDx=0;exitDy=0;" edge="1" parent="1" target="RAs32KpJlCHKYsDaDuBX-9" source="RAs32KpJlCHKYsDaDuBX-7">
          <mxGeometry relative="1" as="geometry">
            <mxPoint x="175" y="510" as="targetPoint" />
            <mxPoint x="175" y="440" as="sourcePoint" />
          </mxGeometry>
        </mxCell>
        <mxCell id="RAs32KpJlCHKYsDaDuBX-9" value="Capture residential address information, all of it in one input box from user keyboard" style="rounded=0;whiteSpace=wrap;html=1;" vertex="1" parent="1">
          <mxGeometry x="115" y="470" width="120" height="60" as="geometry" />
        </mxCell>
        <mxCell id="RAs32KpJlCHKYsDaDuBX-12" value="" style="edgeStyle=orthogonalEdgeStyle;html=1;verticalAlign=bottom;endArrow=block;endSize=8;strokeColor=light-dark(#FF0000,#000000);rounded=0;endFill=1;entryX=0.5;entryY=0;entryDx=0;entryDy=0;exitX=0.5;exitY=1;exitDx=0;exitDy=0;" edge="1" parent="1" target="RAs32KpJlCHKYsDaDuBX-13" source="RAs32KpJlCHKYsDaDuBX-9">
          <mxGeometry relative="1" as="geometry">
            <mxPoint x="175" y="630" as="targetPoint" />
            <mxPoint x="175" y="560" as="sourcePoint" />
          </mxGeometry>
        </mxCell>
        <mxCell id="RAs32KpJlCHKYsDaDuBX-13" value="Capture email address from keyboard" style="rounded=0;whiteSpace=wrap;html=1;" vertex="1" parent="1">
          <mxGeometry x="115" y="590" width="120" height="60" as="geometry" />
        </mxCell>
        <mxCell id="RAs32KpJlCHKYsDaDuBX-14" value="" style="edgeStyle=orthogonalEdgeStyle;html=1;verticalAlign=bottom;endArrow=block;endSize=8;strokeColor=light-dark(#FF0000,#000000);rounded=0;endFill=1;entryX=0.5;entryY=0;entryDx=0;entryDy=0;exitX=0.5;exitY=1;exitDx=0;exitDy=0;" edge="1" parent="1" target="RAs32KpJlCHKYsDaDuBX-15" source="RAs32KpJlCHKYsDaDuBX-13">
          <mxGeometry relative="1" as="geometry">
            <mxPoint x="175" y="730" as="targetPoint" />
            <mxPoint x="175" y="660" as="sourcePoint" />
          </mxGeometry>
        </mxCell>
        <mxCell id="RAs32KpJlCHKYsDaDuBX-15" value="Capture phone number from keyboard" style="rounded=0;whiteSpace=wrap;html=1;" vertex="1" parent="1">
          <mxGeometry x="115" y="710" width="120" height="60" as="geometry" />
        </mxCell>
        <mxCell id="RAs32KpJlCHKYsDaDuBX-16" value="" style="edgeStyle=orthogonalEdgeStyle;html=1;verticalAlign=bottom;endArrow=block;endSize=8;strokeColor=light-dark(#FF0000,#000000);rounded=0;endFill=1;entryX=0.5;entryY=0;entryDx=0;entryDy=0;exitX=0.5;exitY=1;exitDx=0;exitDy=0;" edge="1" parent="1" target="RAs32KpJlCHKYsDaDuBX-17" source="RAs32KpJlCHKYsDaDuBX-15">
          <mxGeometry relative="1" as="geometry">
            <mxPoint x="175" y="880" as="targetPoint" />
            <mxPoint x="175" y="810" as="sourcePoint" />
          </mxGeometry>
        </mxCell>
        <mxCell id="RAs32KpJlCHKYsDaDuBX-17" value="Capture password from keyboard" style="rounded=0;whiteSpace=wrap;html=1;" vertex="1" parent="1">
          <mxGeometry x="115" y="830" width="120" height="60" as="geometry" />
        </mxCell>
        <mxCell id="RAs32KpJlCHKYsDaDuBX-18" value="" style="edgeStyle=orthogonalEdgeStyle;html=1;verticalAlign=bottom;endArrow=block;endSize=8;strokeColor=light-dark(#FF0000,#000000);rounded=0;endFill=1;entryX=0.5;entryY=0;entryDx=0;entryDy=0;exitX=0.5;exitY=1;exitDx=0;exitDy=0;" edge="1" parent="1" target="RAs32KpJlCHKYsDaDuBX-19" source="RAs32KpJlCHKYsDaDuBX-17">
          <mxGeometry relative="1" as="geometry">
            <mxPoint x="175" y="970" as="targetPoint" />
            <mxPoint x="175" y="900" as="sourcePoint" />
          </mxGeometry>
        </mxCell>
        <mxCell id="RAs32KpJlCHKYsDaDuBX-19" value="Capture the re-entered password from keyboard" style="rounded=0;whiteSpace=wrap;html=1;" vertex="1" parent="1">
          <mxGeometry x="115" y="940" width="120" height="60" as="geometry" />
        </mxCell>
        <mxCell id="RAs32KpJlCHKYsDaDuBX-20" value="" style="edgeStyle=orthogonalEdgeStyle;html=1;verticalAlign=bottom;endArrow=block;endSize=8;strokeColor=light-dark(#FF0000,#000000);rounded=0;endFill=1;entryX=0.5;entryY=0;entryDx=0;entryDy=0;exitX=0.5;exitY=1;exitDx=0;exitDy=0;" edge="1" parent="1" target="RAs32KpJlCHKYsDaDuBX-22" source="RAs32KpJlCHKYsDaDuBX-19">
          <mxGeometry relative="1" as="geometry">
            <mxPoint x="175" y="1050" as="targetPoint" />
            <mxPoint x="175" y="1010" as="sourcePoint" />
          </mxGeometry>
        </mxCell>
        <mxCell id="RAs32KpJlCHKYsDaDuBX-22" value="" style="rhombus;whiteSpace=wrap;html=1;" vertex="1" parent="1">
          <mxGeometry x="135" y="1050" width="80" height="80" as="geometry" />
        </mxCell>
        <mxCell id="RAs32KpJlCHKYsDaDuBX-24" value="" style="edgeStyle=segmentEdgeStyle;endArrow=classic;html=1;curved=0;rounded=0;endSize=8;startSize=8;exitX=0;exitY=0.5;exitDx=0;exitDy=0;strokeColor=light-dark(#000000,#000000);entryX=0.5;entryY=0;entryDx=0;entryDy=0;" edge="1" parent="1" source="RAs32KpJlCHKYsDaDuBX-22" target="RAs32KpJlCHKYsDaDuBX-29">
          <mxGeometry width="50" height="50" relative="1" as="geometry">
            <mxPoint x="150" y="1150" as="sourcePoint" />
            <mxPoint x="90" y="1200" as="targetPoint" />
          </mxGeometry>
        </mxCell>
        <mxCell id="RAs32KpJlCHKYsDaDuBX-25" value="If re-entered&lt;br&gt;password and password&lt;br&gt;match" style="edgeLabel;html=1;align=center;verticalAlign=middle;resizable=0;points=[];" vertex="1" connectable="0" parent="RAs32KpJlCHKYsDaDuBX-24">
          <mxGeometry x="-0.7291" relative="1" as="geometry">
            <mxPoint x="-94" y="10" as="offset" />
          </mxGeometry>
        </mxCell>
        <mxCell id="RAs32KpJlCHKYsDaDuBX-26" value="" style="edgeStyle=segmentEdgeStyle;endArrow=classic;html=1;curved=0;rounded=0;endSize=8;startSize=8;exitX=1;exitY=0.5;exitDx=0;exitDy=0;strokeColor=light-dark(#000000,#000000);entryX=0.5;entryY=0;entryDx=0;entryDy=0;" edge="1" parent="1" source="RAs32KpJlCHKYsDaDuBX-22" target="RAs32KpJlCHKYsDaDuBX-31">
          <mxGeometry width="50" height="50" relative="1" as="geometry">
            <mxPoint x="250" y="1090" as="sourcePoint" />
            <mxPoint x="280" y="1200" as="targetPoint" />
            <Array as="points">
              <mxPoint x="280" y="1090" />
            </Array>
          </mxGeometry>
        </mxCell>
        <mxCell id="RAs32KpJlCHKYsDaDuBX-27" value="If re-entered&lt;br&gt;password and password&lt;br&gt;do not match" style="edgeLabel;html=1;align=center;verticalAlign=middle;resizable=0;points=[];" vertex="1" connectable="0" parent="RAs32KpJlCHKYsDaDuBX-26">
          <mxGeometry x="-0.7291" relative="1" as="geometry">
            <mxPoint x="93" as="offset" />
          </mxGeometry>
        </mxCell>
        <mxCell id="RAs32KpJlCHKYsDaDuBX-29" value="Capture driver&#39;s license number from keyboard" style="rounded=0;whiteSpace=wrap;html=1;" vertex="1" parent="1">
          <mxGeometry x="30" y="1200" width="120" height="60" as="geometry" />
        </mxCell>
        <mxCell id="RAs32KpJlCHKYsDaDuBX-31" value="Clear the input boxes&amp;nbsp;&lt;br&gt;for password and re-entered password" style="rounded=0;whiteSpace=wrap;html=1;" vertex="1" parent="1">
          <mxGeometry x="220" y="1200" width="120" height="60" as="geometry" />
        </mxCell>
        <mxCell id="RAs32KpJlCHKYsDaDuBX-32" value="" style="edgeStyle=segmentEdgeStyle;endArrow=classic;html=1;curved=0;rounded=0;endSize=8;startSize=8;strokeColor=light-dark(#000000,#000000);exitX=1;exitY=0.5;exitDx=0;exitDy=0;entryX=1;entryY=0.5;entryDx=0;entryDy=0;" edge="1" parent="1" source="RAs32KpJlCHKYsDaDuBX-31" target="RAs32KpJlCHKYsDaDuBX-17">
          <mxGeometry width="50" height="50" relative="1" as="geometry">
            <mxPoint x="400" y="1230" as="sourcePoint" />
            <mxPoint x="440" y="770" as="targetPoint" />
            <Array as="points">
              <mxPoint x="440" y="1230" />
              <mxPoint x="440" y="860" />
            </Array>
          </mxGeometry>
        </mxCell>
        <mxCell id="RAs32KpJlCHKYsDaDuBX-33" value="" style="edgeStyle=orthogonalEdgeStyle;html=1;verticalAlign=bottom;endArrow=block;endSize=8;strokeColor=light-dark(#FF0000,#000000);rounded=0;endFill=1;entryX=0.5;entryY=0;entryDx=0;entryDy=0;exitX=0.5;exitY=1;exitDx=0;exitDy=0;" edge="1" parent="1" target="RAs32KpJlCHKYsDaDuBX-34" source="RAs32KpJlCHKYsDaDuBX-29">
          <mxGeometry relative="1" as="geometry">
            <mxPoint x="90" y="1360" as="targetPoint" />
            <mxPoint x="90" y="1280" as="sourcePoint" />
          </mxGeometry>
        </mxCell>
        <mxCell id="RAs32KpJlCHKYsDaDuBX-34" value="Capture driver&#39;s license document (pdf or image) uploaded by user" style="rounded=0;whiteSpace=wrap;html=1;" vertex="1" parent="1">
          <mxGeometry x="30" y="1330" width="120" height="60" as="geometry" />
        </mxCell>
        <mxCell id="RAs32KpJlCHKYsDaDuBX-35" value="" style="edgeStyle=orthogonalEdgeStyle;html=1;verticalAlign=bottom;endArrow=block;endSize=8;strokeColor=light-dark(#FF0000,#000000);rounded=0;endFill=1;entryX=0.5;entryY=0;entryDx=0;entryDy=0;exitX=0.5;exitY=1;exitDx=0;exitDy=0;" edge="1" parent="1" target="RAs32KpJlCHKYsDaDuBX-36" source="RAs32KpJlCHKYsDaDuBX-34">
          <mxGeometry relative="1" as="geometry">
            <mxPoint x="90" y="1500" as="targetPoint" />
            <mxPoint x="90" y="1420" as="sourcePoint" />
          </mxGeometry>
        </mxCell>
        <mxCell id="RAs32KpJlCHKYsDaDuBX-36" value="Capture proof of residence (pdf or image) uploaded by user" style="rounded=0;whiteSpace=wrap;html=1;" vertex="1" parent="1">
          <mxGeometry x="30" y="1460" width="120" height="60" as="geometry" />
        </mxCell>
        <mxCell id="RAs32KpJlCHKYsDaDuBX-37" value="" style="edgeStyle=orthogonalEdgeStyle;html=1;verticalAlign=bottom;endArrow=block;endSize=8;strokeColor=light-dark(#FF0000,#000000);rounded=0;endFill=1;entryX=0.5;entryY=0;entryDx=0;entryDy=0;exitX=0.5;exitY=1;exitDx=0;exitDy=0;" edge="1" parent="1" target="RAs32KpJlCHKYsDaDuBX-38" source="RAs32KpJlCHKYsDaDuBX-64">
          <mxGeometry relative="1" as="geometry">
            <mxPoint x="90" y="1730" as="targetPoint" />
            <mxPoint x="90" y="1680" as="sourcePoint" />
          </mxGeometry>
        </mxCell>
        <mxCell id="RAs32KpJlCHKYsDaDuBX-38" value="Validate first name, last name, driver&#39;s license and email address with data from database" style="rounded=0;whiteSpace=wrap;html=1;" vertex="1" parent="1">
          <mxGeometry x="15" y="1710" width="150" height="80" as="geometry" />
        </mxCell>
        <mxCell id="RAs32KpJlCHKYsDaDuBX-39" value="" style="edgeStyle=segmentEdgeStyle;endArrow=classic;html=1;curved=0;rounded=0;endSize=8;startSize=8;exitX=0;exitY=0.5;exitDx=0;exitDy=0;strokeColor=light-dark(#000000,#000000);entryX=0;entryY=0.5;entryDx=0;entryDy=0;" edge="1" parent="1" source="RAs32KpJlCHKYsDaDuBX-38" target="RAs32KpJlCHKYsDaDuBX-42">
          <mxGeometry width="50" height="50" relative="1" as="geometry">
            <mxPoint x="-90" y="1840" as="sourcePoint" />
            <mxPoint y="1930" as="targetPoint" />
            <Array as="points">
              <mxPoint x="-40" y="1750" />
              <mxPoint x="-40" y="1930" />
            </Array>
          </mxGeometry>
        </mxCell>
        <mxCell id="RAs32KpJlCHKYsDaDuBX-40" value="If a match is not&amp;nbsp; found" style="edgeLabel;html=1;align=center;verticalAlign=middle;resizable=0;points=[];" vertex="1" connectable="0" parent="RAs32KpJlCHKYsDaDuBX-39">
          <mxGeometry x="-0.1735" y="-2" relative="1" as="geometry">
            <mxPoint as="offset" />
          </mxGeometry>
        </mxCell>
        <mxCell id="RAs32KpJlCHKYsDaDuBX-42" value="Clear first name,last name, driver&#39;s license and email address input boxes&amp;nbsp;&amp;nbsp;" style="rounded=0;whiteSpace=wrap;html=1;" vertex="1" parent="1">
          <mxGeometry x="10" y="1900" width="120" height="60" as="geometry" />
        </mxCell>
        <mxCell id="RAs32KpJlCHKYsDaDuBX-43" value="" style="edgeStyle=segmentEdgeStyle;endArrow=classic;html=1;curved=0;rounded=0;endSize=8;startSize=8;exitX=1;exitY=0.5;exitDx=0;exitDy=0;strokeColor=light-dark(#000000,#000000);entryX=0.5;entryY=0;entryDx=0;entryDy=0;" edge="1" parent="1" source="RAs32KpJlCHKYsDaDuBX-38" target="RAs32KpJlCHKYsDaDuBX-48">
          <mxGeometry width="50" height="50" relative="1" as="geometry">
            <mxPoint x="215" y="1870" as="sourcePoint" />
            <mxPoint x="265" y="1970" as="targetPoint" />
          </mxGeometry>
        </mxCell>
        <mxCell id="RAs32KpJlCHKYsDaDuBX-46" value="Match is found" style="edgeLabel;html=1;align=center;verticalAlign=middle;resizable=0;points=[];" vertex="1" connectable="0" parent="RAs32KpJlCHKYsDaDuBX-43">
          <mxGeometry x="-0.0028" y="2" relative="1" as="geometry">
            <mxPoint as="offset" />
          </mxGeometry>
        </mxCell>
        <mxCell id="RAs32KpJlCHKYsDaDuBX-44" value="" style="edgeStyle=orthogonalEdgeStyle;html=1;verticalAlign=bottom;endArrow=block;endSize=8;strokeColor=light-dark(#FF0000,#000000);rounded=0;endFill=1;entryX=0.5;entryY=0;entryDx=0;entryDy=0;exitX=0.5;exitY=1;exitDx=0;exitDy=0;" edge="1" parent="1" target="RAs32KpJlCHKYsDaDuBX-45" source="RAs32KpJlCHKYsDaDuBX-42">
          <mxGeometry relative="1" as="geometry">
            <mxPoint x="70" y="2070" as="targetPoint" />
            <mxPoint x="70" y="1990" as="sourcePoint" />
          </mxGeometry>
        </mxCell>
        <mxCell id="RAs32KpJlCHKYsDaDuBX-45" value="User either goes back and re-enters information or closes page" style="rounded=0;whiteSpace=wrap;html=1;" vertex="1" parent="1">
          <mxGeometry x="10" y="2020" width="120" height="60" as="geometry" />
        </mxCell>
        <mxCell id="RAs32KpJlCHKYsDaDuBX-48" value="User confirms account creation by presses &quot;Create account&quot;" style="rounded=0;whiteSpace=wrap;html=1;" vertex="1" parent="1">
          <mxGeometry x="210" y="1980" width="120" height="60" as="geometry" />
        </mxCell>
        <mxCell id="RAs32KpJlCHKYsDaDuBX-49" value="" style="edgeStyle=orthogonalEdgeStyle;html=1;verticalAlign=bottom;endArrow=block;endSize=8;strokeColor=light-dark(#FF0000,#000000);rounded=0;endFill=1;entryX=0.5;entryY=0;entryDx=0;entryDy=0;exitX=0.5;exitY=1;exitDx=0;exitDy=0;" edge="1" parent="1" target="RAs32KpJlCHKYsDaDuBX-50" source="RAs32KpJlCHKYsDaDuBX-48">
          <mxGeometry relative="1" as="geometry">
            <mxPoint x="270" y="2130" as="targetPoint" />
            <mxPoint x="270" y="2050" as="sourcePoint" />
          </mxGeometry>
        </mxCell>
        <mxCell id="RAs32KpJlCHKYsDaDuBX-50" value="Send confirmation&lt;br&gt;via email address" style="rounded=0;whiteSpace=wrap;html=1;" vertex="1" parent="1">
          <mxGeometry x="210" y="2100" width="120" height="60" as="geometry" />
        </mxCell>
        <mxCell id="RAs32KpJlCHKYsDaDuBX-51" value="" style="rhombus;whiteSpace=wrap;html=1;" vertex="1" parent="1">
          <mxGeometry x="30" y="2140" width="80" height="80" as="geometry" />
        </mxCell>
        <mxCell id="RAs32KpJlCHKYsDaDuBX-52" value="" style="edgeStyle=orthogonalEdgeStyle;html=1;verticalAlign=bottom;endArrow=block;endSize=8;strokeColor=light-dark(#FF0000,#000000);rounded=0;endFill=1;entryX=0.5;entryY=0;entryDx=0;entryDy=0;exitX=0.5;exitY=1;exitDx=0;exitDy=0;" edge="1" parent="1" target="RAs32KpJlCHKYsDaDuBX-54" source="RAs32KpJlCHKYsDaDuBX-50">
          <mxGeometry relative="1" as="geometry">
            <mxPoint x="270" y="2220" as="targetPoint" />
            <mxPoint x="275" y="2170" as="sourcePoint" />
          </mxGeometry>
        </mxCell>
        <mxCell id="RAs32KpJlCHKYsDaDuBX-54" value="Redirect to dashboard page" style="rounded=0;whiteSpace=wrap;html=1;" vertex="1" parent="1">
          <mxGeometry x="210" y="2220" width="120" height="60" as="geometry" />
        </mxCell>
        <mxCell id="RAs32KpJlCHKYsDaDuBX-55" value="" style="edgeStyle=orthogonalEdgeStyle;html=1;verticalAlign=bottom;endArrow=block;endSize=8;strokeColor=light-dark(#FF0000,#000000);rounded=0;endFill=1;entryX=0.5;entryY=0;entryDx=0;entryDy=0;exitX=0.5;exitY=1;exitDx=0;exitDy=0;" edge="1" parent="1" source="RAs32KpJlCHKYsDaDuBX-54" target="RAs32KpJlCHKYsDaDuBX-56">
          <mxGeometry relative="1" as="geometry">
            <mxPoint x="269.5" y="2360" as="targetPoint" />
            <mxPoint x="269.5" y="2300" as="sourcePoint" />
          </mxGeometry>
        </mxCell>
        <mxCell id="RAs32KpJlCHKYsDaDuBX-56" value="" style="ellipse;html=1;shape=endState;fillColor=#000000;strokeColor=light-dark(#000000,#000000);" vertex="1" parent="1">
          <mxGeometry x="255" y="2340" width="30" height="30" as="geometry" />
        </mxCell>
        <mxCell id="RAs32KpJlCHKYsDaDuBX-57" value="" style="edgeStyle=orthogonalEdgeStyle;html=1;verticalAlign=bottom;endArrow=block;endSize=8;strokeColor=light-dark(#FF0000,#000000);rounded=0;endFill=1;entryX=0.5;entryY=0;entryDx=0;entryDy=0;exitX=0.5;exitY=1;exitDx=0;exitDy=0;" edge="1" parent="1" source="RAs32KpJlCHKYsDaDuBX-45" target="RAs32KpJlCHKYsDaDuBX-51">
          <mxGeometry relative="1" as="geometry">
            <mxPoint x="160" y="2170" as="targetPoint" />
            <mxPoint x="70" y="2090" as="sourcePoint" />
          </mxGeometry>
        </mxCell>
        <mxCell id="RAs32KpJlCHKYsDaDuBX-58" value="" style="edgeStyle=segmentEdgeStyle;endArrow=classic;html=1;curved=0;rounded=0;endSize=8;startSize=8;strokeColor=light-dark(#000000,#000000);exitX=0;exitY=0.5;exitDx=0;exitDy=0;" edge="1" parent="1" source="RAs32KpJlCHKYsDaDuBX-51">
          <mxGeometry width="50" height="50" relative="1" as="geometry">
            <mxPoint x="-210" y="2060" as="sourcePoint" />
            <mxPoint x="-125" y="150" as="targetPoint" />
          </mxGeometry>
        </mxCell>
        <mxCell id="RAs32KpJlCHKYsDaDuBX-59" value="Chose to re-enter&lt;br&gt;information" style="edgeLabel;html=1;align=center;verticalAlign=middle;resizable=0;points=[];" vertex="1" connectable="0" parent="RAs32KpJlCHKYsDaDuBX-58">
          <mxGeometry x="0.3604" y="-1" relative="1" as="geometry">
            <mxPoint as="offset" />
          </mxGeometry>
        </mxCell>
        <mxCell id="RAs32KpJlCHKYsDaDuBX-60" value="" style="edgeStyle=orthogonalEdgeStyle;html=1;verticalAlign=bottom;endArrow=block;endSize=8;strokeColor=light-dark(#FF0000,#000000);rounded=0;endFill=1;entryX=0.5;entryY=0;entryDx=0;entryDy=0;exitX=0.5;exitY=1;exitDx=0;exitDy=0;" edge="1" parent="1" source="RAs32KpJlCHKYsDaDuBX-51" target="RAs32KpJlCHKYsDaDuBX-62">
          <mxGeometry relative="1" as="geometry">
            <mxPoint x="69.5" y="2300" as="targetPoint" />
            <mxPoint x="69.5" y="2240" as="sourcePoint" />
          </mxGeometry>
        </mxCell>
        <mxCell id="RAs32KpJlCHKYsDaDuBX-61" value="Closed the page" style="edgeLabel;html=1;align=center;verticalAlign=middle;resizable=0;points=[];" vertex="1" connectable="0" parent="RAs32KpJlCHKYsDaDuBX-60">
          <mxGeometry x="-0.2154" y="-1" relative="1" as="geometry">
            <mxPoint as="offset" />
          </mxGeometry>
        </mxCell>
        <mxCell id="RAs32KpJlCHKYsDaDuBX-62" value="" style="ellipse;html=1;shape=endState;fillColor=#000000;strokeColor=light-dark(#000000,#000000);" vertex="1" parent="1">
          <mxGeometry x="55" y="2310" width="30" height="30" as="geometry" />
        </mxCell>
        <mxCell id="RAs32KpJlCHKYsDaDuBX-63" value="" style="edgeStyle=orthogonalEdgeStyle;html=1;verticalAlign=bottom;endArrow=block;endSize=8;strokeColor=light-dark(#FF0000,#000000);rounded=0;endFill=1;entryX=0.5;entryY=0;entryDx=0;entryDy=0;exitX=0.5;exitY=1;exitDx=0;exitDy=0;" edge="1" parent="1" target="RAs32KpJlCHKYsDaDuBX-64" source="RAs32KpJlCHKYsDaDuBX-36">
          <mxGeometry relative="1" as="geometry">
            <mxPoint x="380" y="1700" as="targetPoint" />
            <mxPoint x="210" y="1680" as="sourcePoint" />
          </mxGeometry>
        </mxCell>
        <mxCell id="RAs32KpJlCHKYsDaDuBX-64" value="Capture proof of residence (pdf or image) uploaded by user" style="rounded=0;whiteSpace=wrap;html=1;" vertex="1" parent="1">
          <mxGeometry x="30" y="1590" width="120" height="60" as="geometry" />
        </mxCell>
      </root>
    </mxGraphModel>
  </diagram>
</mxfile>
